# Blender v2.78 (sub 0) OBJ File: ''
# www.blender.org
mtllib cube.mtl
o Cube
v 1.000000 0.000000 -1.000000
v 1.000000 -0.000000 1.000000
v -1.000000 -0.000000 1.000000
v -1.000000 0.000000 -1.000000
v 1.000000 2.000000 -0.999999
v -1.000000 2.000000 -1.000000
v -1.000000 2.000000 1.000000
v 0.999999 2.000000 1.000001
vt 0.0000 0.0000
vt 0.0000 1.0000
vt -1.0000 1.0000
vt -1.0000 0.0000
vt 0.0000 0.0000
vt -1.0000 0.0000
vt -1.0000 1.0000
vt -0.0000 1.0000
vt 0.5000 0.0000
vt 1.5000 0.0000
vt 1.5000 1.0000
vt 0.5000 1.0000
vt 0.0000 0.5000
vt -0.0000 1.5000
vt -1.0000 1.5000
vt -1.0000 0.5000
vt 0.5000 0.0000
vt 1.5000 0.0000
vt 1.5000 -1.0000
vt 0.5000 -1.0000
vt 0.0000 0.5000
vt 0.0000 -0.5000
vt -1.0000 -0.5000
vt -1.0000 0.5000
vn 0.0000 -1.0000 -0.0000
vn -0.0000 1.0000 0.0000
vn 1.0000 0.0000 0.0000
vn -0.0000 -0.0000 1.0000
vn -1.0000 0.0000 0.0000
vn 0.0000 0.0000 -1.0000
usemtl Material_Cube
s 1
f 1/1/1 2/2/1 3/3/1 4/4/1
f 5/5/2 6/6/2 7/7/2 8/8/2
f 1/9/3 5/10/3 8/11/3 2/12/3
f 2/13/4 8/14/4 7/15/4 3/16/4
f 3/17/5 7/18/5 6/19/5 4/20/5
f 5/21/6 1/22/6 4/23/6 6/24/6
o Plane
v -10.000000 -0.000002 10.000000
v 10.000000 -0.000002 10.000000
v 10.000000 0.000002 -10.000000
v -10.000000 0.000002 -10.000000
vt 0.0001 0.0001
vt 0.9999 0.0001
vt 0.9999 0.9999
vt 0.0001 0.9999
vn 0.0000 1.0000 0.0000
usemtl Material_Floor
s 1
f 9/25/7 10/26/7 11/27/7 12/28/7
