# Blender v2.78 (sub 0) OBJ File: ''
# www.blender.org
o Cube
v -0.300000 0.000000 1.705137
v -0.300000 0.600000 1.705137
v -0.300000 0.000000 1.105137
v -0.300000 0.600000 1.105137
v 0.300000 0.000000 1.705137
v 0.300000 0.600000 1.705137
v 0.300000 0.000000 1.105137
v 0.300000 0.600000 1.105137
v -0.300000 0.300000 0.805137
v -0.300000 0.900000 0.805137
v -0.300000 0.300000 0.205137
v -0.300000 0.900000 0.205137
v 0.300000 0.300000 0.805137
v 0.300000 0.900000 0.805137
v 0.300000 0.300000 0.205137
v 0.300000 0.900000 0.205137
v -0.300000 0.600000 -0.094863
v -0.300000 1.200000 -0.094863
v -0.300000 0.600000 -0.694863
v -0.300000 1.200000 -0.694863
v 0.300000 0.600000 -0.094863
v 0.300000 1.200000 -0.094863
v 0.300000 0.600000 -0.694863
v 0.300000 1.200000 -0.694863
v -0.300000 0.900000 -0.994863
v -0.300000 1.500000 -0.994863
v -0.300000 0.900000 -1.594863
v -0.300000 1.500000 -1.594863
v 0.300000 0.900000 -0.994863
v 0.300000 1.500000 -0.994863
v 0.300000 0.900000 -1.594863
v 0.300000 1.500000 -1.594863
v -0.300000 1.200000 -1.894863
v -0.300000 1.800000 -1.894863
v -0.300000 1.200000 -2.494863
v -0.300000 1.800000 -2.494863
v 0.300000 1.200000 -1.894863
v 0.300000 1.800000 -1.894863
v 0.300000 1.200000 -2.494863
v 0.300000 1.800000 -2.494863
v -0.300000 1.500000 -2.794863
v -0.300000 2.100000 -2.794863
v -0.300000 1.500000 -3.394863
v -0.300000 2.100000 -3.394863
v 0.300000 1.500000 -2.794863
v 0.300000 2.100000 -2.794863
v 0.300000 1.500000 -3.394863
v 0.300000 2.100000 -3.394863
v -0.300000 1.800000 -3.694863
v -0.300000 2.400000 -3.694863
v -0.300000 1.800000 -4.294864
v -0.300000 2.400000 -4.294864
v 0.300000 1.800000 -3.694863
v 0.300000 2.400000 -3.694863
v 0.300000 1.800000 -4.294864
v 0.300000 2.400000 -4.294864
v -0.300000 2.100000 -4.594863
v -0.300000 2.700000 -4.594863
v -0.300000 2.100000 -5.194863
v -0.300000 2.700000 -5.194863
v 0.300000 2.100000 -4.594863
v 0.300000 2.700000 -4.594863
v 0.300000 2.100000 -5.194863
v 0.300000 2.700000 -5.194863
v -0.300000 2.400000 -5.494864
v -0.300000 3.000000 -5.494864
v -0.300000 2.400000 -6.094863
v -0.300000 3.000000 -6.094863
v 0.300000 2.400000 -5.494864
v 0.300000 3.000000 -5.494864
v 0.300000 2.400000 -6.094863
v 0.300000 3.000000 -6.094863
v -0.300000 2.700000 -6.394864
v -0.300000 3.300000 -6.394864
v -0.300000 2.700000 -6.994864
v -0.300000 3.300000 -6.994864
v 0.300000 2.700000 -6.394864
v 0.300000 3.300000 -6.394864
v 0.300000 2.700000 -6.994864
v 0.300000 3.300000 -6.994864
vt 0.6581 1.0000
vt 1.6581 0.0000
vt 0.6581 0.0000
vt 0.0000 1.0000
vt 1.0000 0.0000
vt 0.0000 0.0000
vt 0.6581 1.0000
vt -0.3419 0.0000
vt 0.6581 0.0000
vt 0.0000 1.0000
vt -1.0000 0.0000
vt 0.0000 0.0000
vt 1.0000 0.6581
vt 0.0000 -0.3419
vt 0.0000 0.6581
vt -1.0000 0.6581
vt 0.0000 -0.3419
vt 0.0000 0.6581
vt 0.6581 1.0000
vt 1.6581 0.0000
vt 0.6581 0.0000
vt 0.0000 1.0000
vt 1.0000 0.0000
vt 0.0000 0.0000
vt 0.6581 1.0000
vt -0.3419 0.0000
vt 0.6581 0.0000
vt 0.0000 1.0000
vt -1.0000 0.0000
vt 0.0000 0.0000
vt 1.0000 0.6581
vt 0.0000 -0.3419
vt 0.0000 0.6581
vt -1.0000 0.6581
vt 0.0000 -0.3419
vt 0.0000 0.6581
vt 0.6581 1.0000
vt 1.6581 0.0000
vt 0.6581 0.0000
vt 0.0000 1.0000
vt 1.0000 0.0000
vt 0.0000 0.0000
vt 0.6581 1.0000
vt -0.3419 0.0000
vt 0.6581 0.0000
vt 0.0000 1.0000
vt -1.0000 0.0000
vt 0.0000 0.0000
vt 1.0000 0.6581
vt 0.0000 -0.3419
vt 0.0000 0.6581
vt -1.0000 0.6581
vt 0.0000 -0.3419
vt 0.0000 0.6581
vt 0.6581 1.0000
vt 1.6581 0.0000
vt 0.6581 0.0000
vt 0.0000 1.0000
vt 1.0000 0.0000
vt 0.0000 0.0000
vt 0.6581 1.0000
vt -0.3419 0.0000
vt 0.6581 0.0000
vt 0.0000 1.0000
vt -1.0000 0.0000
vt 0.0000 0.0000
vt 1.0000 0.6581
vt 0.0000 -0.3419
vt 0.0000 0.6581
vt -1.0000 0.6581
vt 0.0000 -0.3419
vt 0.0000 0.6581
vt 0.6581 1.0000
vt 1.6581 0.0000
vt 0.6581 0.0000
vt 0.0000 1.0000
vt 1.0000 0.0000
vt 0.0000 0.0000
vt 0.6581 1.0000
vt -0.3419 0.0000
vt 0.6581 0.0000
vt 0.0000 1.0000
vt -1.0000 0.0000
vt 0.0000 0.0000
vt 1.0000 0.6581
vt 0.0000 -0.3419
vt 0.0000 0.6581
vt -1.0000 0.6581
vt 0.0000 -0.3419
vt 0.0000 0.6581
vt 0.6581 1.0000
vt 1.6581 0.0000
vt 0.6581 0.0000
vt 0.0000 1.0000
vt 1.0000 0.0000
vt 0.0000 0.0000
vt 0.6581 1.0000
vt -0.3419 0.0000
vt 0.6581 0.0000
vt 0.0000 1.0000
vt -1.0000 0.0000
vt 0.0000 0.0000
vt 1.0000 0.6581
vt 0.0000 -0.3419
vt 0.0000 0.6581
vt -1.0000 0.6581
vt 0.0000 -0.3419
vt 0.0000 0.6581
vt 0.6581 1.0000
vt 1.6581 0.0000
vt 0.6581 0.0000
vt 0.0000 1.0000
vt 1.0000 0.0000
vt 0.0000 0.0000
vt 0.6581 1.0000
vt -0.3419 0.0000
vt 0.6581 0.0000
vt 0.0000 1.0000
vt -1.0000 0.0000
vt 0.0000 0.0000
vt 1.0000 0.6581
vt 0.0000 -0.3419
vt 0.0000 0.6581
vt -1.0000 0.6581
vt 0.0000 -0.3419
vt 0.0000 0.6581
vt 0.6581 1.0000
vt 1.6581 0.0000
vt 0.6581 0.0000
vt 0.0000 1.0000
vt 1.0000 0.0000
vt 0.0000 0.0000
vt 0.6581 1.0000
vt -0.3419 0.0000
vt 0.6581 0.0000
vt 0.0000 1.0000
vt -1.0000 0.0000
vt 0.0000 0.0000
vt 1.0000 0.6581
vt 0.0000 -0.3419
vt 0.0000 0.6581
vt -1.0000 0.6581
vt 0.0000 -0.3419
vt 0.0000 0.6581
vt 0.6581 1.0000
vt 1.6581 0.0000
vt 0.6581 0.0000
vt 0.0000 1.0000
vt 1.0000 0.0000
vt 0.0000 0.0000
vt 0.6581 1.0000
vt -0.3419 0.0000
vt 0.6581 0.0000
vt 0.0000 1.0000
vt -1.0000 0.0000
vt 0.0000 0.0000
vt 1.0000 0.6581
vt 0.0000 -0.3419
vt 0.0000 0.6581
vt -1.0000 0.6581
vt 0.0000 -0.3419
vt 0.0000 0.6581
vt 0.6581 1.0000
vt 1.6581 0.0000
vt 0.6581 0.0000
vt 0.0000 1.0000
vt 1.0000 0.0000
vt 0.0000 0.0000
vt 0.6581 1.0000
vt -0.3419 0.0000
vt 0.6581 0.0000
vt 0.0000 1.0000
vt -1.0000 0.0000
vt 0.0000 0.0000
vt 1.0000 0.6581
vt 0.0000 -0.3419
vt 0.0000 0.6581
vt -1.0000 0.6581
vt 0.0000 -0.3419
vt 0.0000 0.6581
vt 1.6581 1.0000
vt 1.0000 1.0000
vt -0.3419 1.0000
vt -1.0000 1.0000
vt 1.0000 -0.3419
vt -1.0000 -0.3419
vt 1.6581 1.0000
vt 1.0000 1.0000
vt -0.3419 1.0000
vt -1.0000 1.0000
vt 1.0000 -0.3419
vt -1.0000 -0.3419
vt 1.6581 1.0000
vt 1.0000 1.0000
vt -0.3419 1.0000
vt -1.0000 1.0000
vt 1.0000 -0.3419
vt -1.0000 -0.3419
vt 1.6581 1.0000
vt 1.0000 1.0000
vt -0.3419 1.0000
vt -1.0000 1.0000
vt 1.0000 -0.3419
vt -1.0000 -0.3419
vt 1.6581 1.0000
vt 1.0000 1.0000
vt -0.3419 1.0000
vt -1.0000 1.0000
vt 1.0000 -0.3419
vt -1.0000 -0.3419
vt 1.6581 1.0000
vt 1.0000 1.0000
vt -0.3419 1.0000
vt -1.0000 1.0000
vt 1.0000 -0.3419
vt -1.0000 -0.3419
vt 1.6581 1.0000
vt 1.0000 1.0000
vt -0.3419 1.0000
vt -1.0000 1.0000
vt 1.0000 -0.3419
vt -1.0000 -0.3419
vt 1.6581 1.0000
vt 1.0000 1.0000
vt -0.3419 1.0000
vt -1.0000 1.0000
vt 1.0000 -0.3419
vt -1.0000 -0.3419
vt 1.6581 1.0000
vt 1.0000 1.0000
vt -0.3419 1.0000
vt -1.0000 1.0000
vt 1.0000 -0.3419
vt -1.0000 -0.3419
vt 1.6581 1.0000
vt 1.0000 1.0000
vt -0.3419 1.0000
vt -1.0000 1.0000
vt 1.0000 -0.3419
vt -1.0000 -0.3419
vn -1.0000 0.0000 0.0000
vn 0.0000 0.0000 -1.0000
vn 1.0000 0.0000 0.0000
vn 0.0000 0.0000 1.0000
vn 0.0000 -1.0000 0.0000
vn 0.0000 1.0000 0.0000
s off
f 2/1/1 3/2/1 1/3/1
f 4/4/2 7/5/2 3/6/2
f 8/7/3 5/8/3 7/9/3
f 6/10/4 1/11/4 5/12/4
f 7/13/5 1/14/5 3/15/5
f 4/16/6 6/17/6 8/18/6
f 10/19/1 11/20/1 9/21/1
f 12/22/2 15/23/2 11/24/2
f 16/25/3 13/26/3 15/27/3
f 14/28/4 9/29/4 13/30/4
f 15/31/5 9/32/5 11/33/5
f 12/34/6 14/35/6 16/36/6
f 18/37/1 19/38/1 17/39/1
f 20/40/2 23/41/2 19/42/2
f 24/43/3 21/44/3 23/45/3
f 22/46/4 17/47/4 21/48/4
f 23/49/5 17/50/5 19/51/5
f 20/52/6 22/53/6 24/54/6
f 26/55/1 27/56/1 25/57/1
f 28/58/2 31/59/2 27/60/2
f 32/61/3 29/62/3 31/63/3
f 30/64/4 25/65/4 29/66/4
f 31/67/5 25/68/5 27/69/5
f 28/70/6 30/71/6 32/72/6
f 34/73/1 35/74/1 33/75/1
f 36/76/2 39/77/2 35/78/2
f 40/79/3 37/80/3 39/81/3
f 38/82/4 33/83/4 37/84/4
f 39/85/5 33/86/5 35/87/5
f 36/88/6 38/89/6 40/90/6
f 42/91/1 43/92/1 41/93/1
f 44/94/2 47/95/2 43/96/2
f 48/97/3 45/98/3 47/99/3
f 46/100/4 41/101/4 45/102/4
f 47/103/5 41/104/5 43/105/5
f 44/106/6 46/107/6 48/108/6
f 50/109/1 51/110/1 49/111/1
f 52/112/2 55/113/2 51/114/2
f 56/115/3 53/116/3 55/117/3
f 54/118/4 49/119/4 53/120/4
f 55/121/5 49/122/5 51/123/5
f 52/124/6 54/125/6 56/126/6
f 58/127/1 59/128/1 57/129/1
f 60/130/2 63/131/2 59/132/2
f 64/133/3 61/134/3 63/135/3
f 62/136/4 57/137/4 61/138/4
f 63/139/5 57/140/5 59/141/5
f 60/142/6 62/143/6 64/144/6
f 66/145/1 67/146/1 65/147/1
f 68/148/2 71/149/2 67/150/2
f 72/151/3 69/152/3 71/153/3
f 70/154/4 65/155/4 69/156/4
f 71/157/5 65/158/5 67/159/5
f 68/160/6 70/161/6 72/162/6
f 74/163/1 75/164/1 73/165/1
f 76/166/2 79/167/2 75/168/2
f 80/169/3 77/170/3 79/171/3
f 78/172/4 73/173/4 77/174/4
f 79/175/5 73/176/5 75/177/5
f 76/178/6 78/179/6 80/180/6
f 2/1/1 4/181/1 3/2/1
f 4/4/2 8/182/2 7/5/2
f 8/7/3 6/183/3 5/8/3
f 6/10/4 2/184/4 1/11/4
f 7/13/5 5/185/5 1/14/5
f 4/16/6 2/186/6 6/17/6
f 10/19/1 12/187/1 11/20/1
f 12/22/2 16/188/2 15/23/2
f 16/25/3 14/189/3 13/26/3
f 14/28/4 10/190/4 9/29/4
f 15/31/5 13/191/5 9/32/5
f 12/34/6 10/192/6 14/35/6
f 18/37/1 20/193/1 19/38/1
f 20/40/2 24/194/2 23/41/2
f 24/43/3 22/195/3 21/44/3
f 22/46/4 18/196/4 17/47/4
f 23/49/5 21/197/5 17/50/5
f 20/52/6 18/198/6 22/53/6
f 26/55/1 28/199/1 27/56/1
f 28/58/2 32/200/2 31/59/2
f 32/61/3 30/201/3 29/62/3
f 30/64/4 26/202/4 25/65/4
f 31/67/5 29/203/5 25/68/5
f 28/70/6 26/204/6 30/71/6
f 34/73/1 36/205/1 35/74/1
f 36/76/2 40/206/2 39/77/2
f 40/79/3 38/207/3 37/80/3
f 38/82/4 34/208/4 33/83/4
f 39/85/5 37/209/5 33/86/5
f 36/88/6 34/210/6 38/89/6
f 42/91/1 44/211/1 43/92/1
f 44/94/2 48/212/2 47/95/2
f 48/97/3 46/213/3 45/98/3
f 46/100/4 42/214/4 41/101/4
f 47/103/5 45/215/5 41/104/5
f 44/106/6 42/216/6 46/107/6
f 50/109/1 52/217/1 51/110/1
f 52/112/2 56/218/2 55/113/2
f 56/115/3 54/219/3 53/116/3
f 54/118/4 50/220/4 49/119/4
f 55/121/5 53/221/5 49/122/5
f 52/124/6 50/222/6 54/125/6
f 58/127/1 60/223/1 59/128/1
f 60/130/2 64/224/2 63/131/2
f 64/133/3 62/225/3 61/134/3
f 62/136/4 58/226/4 57/137/4
f 63/139/5 61/227/5 57/140/5
f 60/142/6 58/228/6 62/143/6
f 66/145/1 68/229/1 67/146/1
f 68/148/2 72/230/2 71/149/2
f 72/151/3 70/231/3 69/152/3
f 70/154/4 66/232/4 65/155/4
f 71/157/5 69/233/5 65/158/5
f 68/160/6 66/234/6 70/161/6
f 74/163/1 76/235/1 75/164/1
f 76/166/2 80/236/2 79/167/2
f 80/169/3 78/237/3 77/170/3
f 78/172/4 74/238/4 73/173/4
f 79/175/5 77/239/5 73/176/5
f 76/178/6 74/240/6 78/179/6
o Plane
v -3.000000 0.000000 3.000000
v 3.000000 0.000000 3.000000
v -3.000000 0.000000 -10.003239
v 3.000000 0.000000 -10.003239
vt 0.0001 0.0001
vt 0.9999 0.4614
vt 0.0001 0.4614
vt 0.9999 0.0001
vn 0.0000 1.0000 0.0000
s off
f 82/241/7 83/242/7 81/243/7
f 82/241/7 84/244/7 83/242/7
